<svg width="24" height="17" xmlns="http://www.w3.org/2000/svg"><path d="m17.597 4.157.035-.01a.46.46 0 0 1 .056-.007l.038-.002.037.002a.52.52 0 0 1 .056.008l.035.009.032.01h.003l.019.01.012.004-.013-.005.016.007.029.015a.471.471 0 0 1 .212.25l.001.003.503 1.4.063.001c.259 0 .468.212.468.475 0 .262-.21.474-.468.474h-.352a.467.467 0 0 1-.449-.245l-.029-.065-.176-.49-.175.49h-.001l-.002.006-.009.023-.01.02.005-.01-.019.038a.394.394 0 0 1-.042.061l-.016.018a.371.371 0 0 1-.03.032l-.015.012a.36.36 0 0 1-.041.032l-.007.004a.344.344 0 0 1-.047.028c-.006.001-.01.003-.015.006a.324.324 0 0 1-.051.02h-.007a.436.436 0 0 1-.17.02h-1.619l-.021-.001-.006-.002h-.015l.002-.001-.036-.005a.58.58 0 0 1-.024-.005l-.04-.013a.617.617 0 0 1-.087-.041.46.46 0 0 1-.08-.061l-.019-.02a.598.598 0 0 1-.062-.085l-.016-.03-.004-.007-.004-.01.003.006-.012-.03.007.02-.008-.019-.002-.005v-.003l-.594-1.654-.594 1.654a.475.475 0 0 1-.084.146l-.006.006a.338.338 0 0 1-.04.041l-.008.006a.344.344 0 0 1-.042.033l-.013.008a.34.34 0 0 1-.064.034.36.36 0 0 1-.066.023l-.028.006a.52.52 0 0 1-.074.009H11.53a.47.47 0 0 1-.452-.35l-.994-2.772-.972 2.706 1.387 3.862h1.219l1.07-2.978a.469.469 0 0 1 .415-.311H13.257c.16.008.307.1.386.245l.03.066 1.068 2.978h1.102l.605-1.684a.474.474 0 0 1 .234-.315l.063-.028a.464.464 0 0 1 .109-.026l.02-.002a.02.02 0 0 1 .005 0h.062l.017.002a.472.472 0 0 1 .408.37l.605 1.683h.76c.26 0 .469.213.469.475s-.21.475-.468.475h-1.056a.467.467 0 0 1-.443-.246l-.029-.065-.297-.827-.277.775a.475.475 0 0 1-.226.302l-.011.006a.335.335 0 0 1-.046.022l-.018.006a.436.436 0 0 1-.083.022h-.003a.408.408 0 0 1-.104.005h-1.68a.462.462 0 0 1-.238-.04l-.014-.008a.308.308 0 0 1-.04-.02c-.006-.006-.013-.01-.02-.015a.383.383 0 0 1-.059-.048l-.012-.013a.385.385 0 0 1-.038-.044v-.002a.45.45 0 0 1-.078-.16l-.73-2.036-.726 2.023a.475.475 0 0 1-.172.266l-.012.009a.29.29 0 0 1-.035.023l-.023.013-.014.007-.015.007a.382.382 0 0 1-.042.017h-.006a.452.452 0 0 1-.183.022l-1.825-.001a.462.462 0 0 1-.272-.089.47.47 0 0 1-.145-.16l-.031-.07-1.115-3.103-.948 2.642L9.4 15.248h.848l1.291-3.596a.474.474 0 0 1 .282-.286.465.465 0 0 1 .571.22l.029.064 1.292 3.598h1.071l.8-2.225a.469.469 0 0 1 .421-.312h.052a.466.466 0 0 1 .392.245l.03.067.798 2.225 1.455.001c.258 0 .468.213.468.475s-.21.474-.468.474h-1.799l-.02-.001-.01-.002a.319.319 0 0 1-.05-.006l-.014-.004a.47.47 0 0 1-.347-.345l-.461-1.289-.48 1.335a.47.47 0 0 1-.238.266l-.01.004a.333.333 0 0 1-.05.02l-.014.004a.368.368 0 0 1-.051.012l-.015.002a.395.395 0 0 1-.053.004H13.365v-.001l-.01-.001H13.365l.009.001h-.011l-.009-.001h.003-.008l-.038-.003a.471.471 0 0 1-.382-.35l-.948-2.645-.965 2.69a.468.468 0 0 1-.477.31H9.077a.468.468 0 0 1-.413-.243l-.03-.07L7.17 11.81l-1.462 4.076a.466.466 0 0 1-.6.283.476.476 0 0 1-.28-.608l1.776-4.95a.484.484 0 0 1 .017-.057L8.173 6.23l.009-.022a.485.485 0 0 1 .014-.05l1.416-3.947a.473.473 0 0 1 .438-.412h.066a.473.473 0 0 1 .438.412l1.304 3.64h1.217l.91-2.537a.473.473 0 0 1 .226-.287l.063-.03a.463.463 0 0 1 .121-.026h.002a.38.38 0 0 1 .077 0h.005a.471.471 0 0 1 .406.336l.911 2.544h.987l.503-1.401a.476.476 0 0 1 .213-.253l.029-.016.015-.006-.012.005.012-.005.019-.008h.003a.47.47 0 0 1 .032-.011Z" fill="#0F58D6" fill-rule="nonzero"/></svg>