<?xml version="1.0" encoding="UTF-8"?>
<svg width="7px" height="7px" viewBox="0 0 7 7" version="1.1" xmlns="http://www.w3.org/2000/svg" xmlns:xlink="http://www.w3.org/1999/xlink">
    <title>Settings</title>
    <g id="Initial-proposals" stroke="none" stroke-width="1" fill="none" fill-rule="evenodd">
        <path d="M3.07692308,4.66666667 C2.39815385,4.66666667 1.84615385,4.06833333 1.84615385,3.33333333 C1.84615385,2.59833333 2.39815385,2 3.07692308,2 C3.75569231,2 4.30769231,2.59833333 4.30769231,3.33333333 C4.30769231,4.06833333 3.75569231,4.66666667 3.07692308,4.66666667 M6.02564103,2.77777778 L5.29358974,2.77777778 C5.24230769,2.55833333 5.17717949,2.31472222 5.09410256,2.13 L5.61512821,1.56555556 C5.63923077,1.53944444 5.65282051,1.50416667 5.65282051,1.4675 C5.65282051,1.43055556 5.63923077,1.395 5.61512821,1.36916667 L4.88974359,0.583888889 C4.83974359,0.529166667 4.75871795,0.529166667 4.70846154,0.583888889 L4.1874359,1.14805556 C4.01666667,1.05805556 3.79205128,0.9875 3.58974359,0.932222222 L3.58974359,0.138888889 C3.58974359,0.0622222222 3.53230769,0 3.46153846,0 L2.69230769,0 C2.62153846,0 2.56410256,0.0622222222 2.56410256,0.138888889 L2.56410256,0.932222222 C2.36153846,0.9875 2.13692308,1.05805556 1.96641026,1.14805556 L1.44512821,0.583888889 C1.39487179,0.529166667 1.31384615,0.529166667 1.26384615,0.583888889 L0.538461538,1.36916667 C0.488461538,1.42305556 0.488461538,1.51111111 0.538461538,1.56555556 L1.05974359,2.13027778 C0.977179487,2.31416667 0.911538462,2.55805556 0.86025641,2.77777778 L0.128205128,2.77777778 C0.0574358974,2.77777778 0,2.84 0,2.91666667 L0,3.75 C0,3.82666667 0.0574358974,3.88888889 0.128205128,3.88888889 L0.86025641,3.88888889 C0.911538462,4.10861111 0.977179487,4.35222222 1.05974359,4.53638889 L0.538461538,5.10138889 C0.514358974,5.12722222 0.500769231,5.1625 0.500769231,5.19944444 C0.500769231,5.23638889 0.514358974,5.27138889 0.538461538,5.2975 L1.26384615,6.08305556 C1.31205128,6.13527778 1.39717949,6.13527778 1.44512821,6.08305556 L1.96641026,5.51861111 C2.13615385,5.60833333 2.36128205,5.67888889 2.56410256,5.73472222 L2.56410256,6.52777778 C2.56410256,6.60444444 2.62153846,6.66666667 2.69230769,6.66666667 L3.46153846,6.66666667 C3.53230769,6.66666667 3.58974359,6.60444444 3.58974359,6.52777778 L3.58974359,5.73472222 C3.79230769,5.67888889 4.0174359,5.60833333 4.1874359,5.51861111 L4.70871795,6.08305556 C4.75897436,6.1375 4.84,6.1375 4.89,6.08305556 L5.61512821,5.2975 C5.66538462,5.24333333 5.66538462,5.15555556 5.61512821,5.10138889 L5.09410256,4.53638889 C5.17692308,4.35222222 5.24230769,4.10861111 5.29358974,3.88888889 L6.02564103,3.88888889 C6.09641026,3.88888889 6.15384615,3.82666667 6.15384615,3.75 L6.15384615,2.91666667 C6.15384615,2.84 6.09641026,2.77777778 6.02564103,2.77777778" id="Settings" fill="#0F58D6"></path>
    </g>
</svg>