<?xml version="1.0" encoding="UTF-8"?>
<svg width="20px" height="20px" viewBox="0 0 20 20" version="1.1" xmlns="http://www.w3.org/2000/svg" xmlns:xlink="http://www.w3.org/1999/xlink">
    <title>Settings</title>
    <g id="Initial-proposals" stroke="none" stroke-width="1" fill="none" fill-rule="evenodd">
        <path d="M10,14 C7.794,14 6,12.205 6,10 C6,7.795 7.794,6 10,6 C12.206,6 14,7.795 14,10 C14,12.205 12.206,14 10,14 M19.5833333,8.33333333 L17.2041667,8.33333333 C17.0375,7.675 16.8258333,6.94416667 16.5558333,6.39 L18.2491667,4.69666667 C18.3275,4.61833333 18.3716667,4.5125 18.3716667,4.4025 C18.3716667,4.29166667 18.3275,4.185 18.2491667,4.1075 L15.8916667,1.75166667 C15.7291667,1.5875 15.4658333,1.5875 15.3025,1.75166667 L13.6091667,3.44416667 C13.0541667,3.17416667 12.3241667,2.9625 11.6666667,2.79666667 L11.6666667,0.416666667 C11.6666667,0.186666667 11.48,0 11.25,0 L8.75,0 C8.52,0 8.33333333,0.186666667 8.33333333,0.416666667 L8.33333333,2.79666667 C7.675,2.9625 6.945,3.17416667 6.39083333,3.44416667 L4.69666667,1.75166667 C4.53333333,1.5875 4.27,1.5875 4.1075,1.75166667 L1.75,4.1075 C1.5875,4.26916667 1.5875,4.53333333 1.75,4.69666667 L3.44416667,6.39083333 C3.17583333,6.9425 2.9625,7.67416667 2.79583333,8.33333333 L0.416666667,8.33333333 C0.186666667,8.33333333 0,8.52 0,8.75 L0,11.25 C0,11.48 0.186666667,11.6666667 0.416666667,11.6666667 L2.79583333,11.6666667 C2.9625,12.3258333 3.17583333,13.0566667 3.44416667,13.6091667 L1.75,15.3041667 C1.67166667,15.3816667 1.6275,15.4875 1.6275,15.5983333 C1.6275,15.7091667 1.67166667,15.8141667 1.75,15.8925 L4.1075,18.2491667 C4.26416667,18.4058333 4.54083333,18.4058333 4.69666667,18.2491667 L6.39083333,16.5558333 C6.9425,16.825 7.67416667,17.0366667 8.33333333,17.2041667 L8.33333333,19.5833333 C8.33333333,19.8133333 8.52,20 8.75,20 L11.25,20 C11.48,20 11.6666667,19.8133333 11.6666667,19.5833333 L11.6666667,17.2041667 C12.325,17.0366667 13.0566667,16.825 13.6091667,16.5558333 L15.3033333,18.2491667 C15.4666667,18.4125 15.73,18.4125 15.8925,18.2491667 L18.2491667,15.8925 C18.4125,15.73 18.4125,15.4666667 18.2491667,15.3041667 L16.5558333,13.6091667 C16.825,13.0566667 17.0375,12.3258333 17.2041667,11.6666667 L19.5833333,11.6666667 C19.8133333,11.6666667 20,11.48 20,11.25 L20,8.75 C20,8.52 19.8133333,8.33333333 19.5833333,8.33333333" id="Settings" fill="#0F58D6"></path>
    </g>
</svg>